<svg width="96" height="86" viewBox="0 0 96 86" fill="none" xmlns="http://www.w3.org/2000/svg">
<g filter="url(#filter0_d_8310_691)">
<path d="M5.37285 42.5185C4.62083 41.2089 4.24484 40.5536 4.09767 39.8574C3.96744 39.2412 3.96744 38.6048 4.09767 37.9886C4.24484 37.2924 4.62083 36.6371 5.37285 35.3274L23.5901 3.59555C24.3421 2.28569 24.7181 1.63076 25.2442 1.15444C25.7096 0.732998 26.2579 0.414612 26.8535 0.220002C27.5267 -2.00917e-07 28.2787 0 29.7827 0H66.2171C67.7214 0 68.4731 -2.00917e-07 69.1466 0.220002C69.7419 0.414612 70.2903 0.732998 70.756 1.15444C71.282 1.63076 71.6578 2.28569 72.41 3.59555L90.6271 35.3274C91.3792 36.6371 91.7551 37.2924 91.9021 37.9886C92.0326 38.6048 92.0326 39.2412 91.9021 39.8574C91.7551 40.5536 91.3792 41.2089 90.6271 42.5185L72.41 74.2506C71.6578 75.5603 71.282 76.2151 70.756 76.6915C70.2903 77.1131 69.7419 77.4313 69.1466 77.6259C68.4731 77.8462 67.7214 77.8462 66.2171 77.8462H29.7827C28.2787 77.8462 27.5267 77.8462 26.8535 77.6259C26.2579 77.4313 25.7096 77.1131 25.2442 76.6915C24.7181 76.2151 24.3421 75.5603 23.5901 74.2506L5.37285 42.5185Z" fill="white"/>
</g>
<path d="M52.2051 21H41.2051C40.1051 21 39.2051 21.9 39.2051 23V43C39.2051 44.1 40.1051 45 41.2051 45H55.2051C56.3051 45 57.2051 44.1 57.2051 43V26L52.2051 21Z" fill="#F2BB41" stroke="#F2BB41" stroke-width="2" stroke-miterlimit="10" stroke-linecap="round" stroke-linejoin="round"/>
<path d="M52.2051 21V26H57.2051L52.2051 21Z" fill="#E08838" stroke="#E08838" stroke-width="2" stroke-miterlimit="10" stroke-linecap="round" stroke-linejoin="round"/>
<path d="M24.2667 57V51.36H26.6747C27.2987 51.36 27.7787 51.5013 28.1147 51.784C28.4507 52.0667 28.6187 52.4747 28.6187 53.008C28.6187 53.312 28.5573 53.5733 28.4347 53.792C28.3173 54.0107 28.1493 54.1867 27.9307 54.32C27.712 54.448 27.4587 54.5307 27.1707 54.568L27.1947 54.56L27.2907 54.576C27.424 54.6027 27.544 54.6613 27.6507 54.752C27.7573 54.8373 27.8613 54.976 27.9627 55.168L28.9387 57H27.9707L27.0427 55.248C26.9733 55.1093 26.8933 55.0027 26.8027 54.928C26.7173 54.8533 26.616 54.8027 26.4987 54.776C26.3867 54.744 26.2507 54.728 26.0907 54.728H25.1467V57H24.2667ZM25.1467 54.024H26.5947C26.9893 54.024 27.28 53.944 27.4667 53.784C27.6533 53.6187 27.7467 53.3707 27.7467 53.04C27.7467 52.7147 27.6507 52.4773 27.4587 52.328C27.2667 52.1733 26.9707 52.096 26.5707 52.096H25.1467V54.024ZM31.826 57.072C31.362 57.072 30.9646 56.992 30.634 56.832C30.3033 56.6667 30.05 56.4293 29.874 56.12C29.698 55.8107 29.61 55.4427 29.61 55.016C29.61 54.616 29.69 54.2613 29.85 53.952C30.0153 53.6427 30.25 53.4 30.554 53.224C30.858 53.0427 31.2153 52.952 31.626 52.952C32.0153 52.952 32.3486 53.0347 32.626 53.2C32.9033 53.3653 33.1166 53.6 33.266 53.904C33.4153 54.208 33.49 54.5707 33.49 54.992V55.264H30.29V54.696H32.89L32.746 54.84C32.746 54.4347 32.65 54.128 32.458 53.92C32.266 53.7067 31.994 53.6 31.642 53.6C31.402 53.6 31.1913 53.6533 31.01 53.76C30.834 53.8613 30.6953 54.0107 30.594 54.208C30.4926 54.4 30.442 54.6347 30.442 54.912V55C30.442 55.3093 30.4953 55.5653 30.602 55.768C30.714 55.9707 30.874 56.1227 31.082 56.224C31.2953 56.3253 31.5513 56.376 31.85 56.376C32.0686 56.376 32.2873 56.3493 32.506 56.296C32.73 56.2373 32.938 56.1333 33.13 55.984L33.402 56.592C33.194 56.7573 32.9486 56.88 32.666 56.96C32.3833 57.0347 32.1033 57.072 31.826 57.072ZM36.3442 58.512C36.0242 58.512 35.7068 58.4667 35.3922 58.376C35.0775 58.2907 34.8082 58.168 34.5842 58.008L34.8402 57.344C34.9842 57.4347 35.1388 57.5147 35.3042 57.584C35.4695 57.6533 35.6375 57.704 35.8082 57.736C35.9842 57.7733 36.1522 57.792 36.3122 57.792C36.7228 57.792 37.0375 57.6933 37.2562 57.496C37.4802 57.304 37.5922 57.024 37.5922 56.656V56H37.5762C37.4748 56.256 37.3015 56.4667 37.0562 56.632C36.8108 56.792 36.5255 56.872 36.2002 56.872C35.8322 56.872 35.5095 56.792 35.2322 56.632C34.9548 56.4667 34.7388 56.2373 34.5842 55.944C34.4295 55.6507 34.3522 55.3067 34.3522 54.912C34.3522 54.5227 34.4295 54.1813 34.5842 53.888C34.7388 53.5893 34.9548 53.36 35.2322 53.2C35.5095 53.0347 35.8322 52.952 36.2002 52.952C36.5308 52.952 36.8188 53.0347 37.0642 53.2C37.3095 53.3653 37.4828 53.5867 37.5842 53.864H37.5922V53.032H38.4162V56.584C38.4162 56.984 38.3335 57.328 38.1682 57.616C38.0028 57.904 37.7655 58.1253 37.4562 58.28C37.1468 58.4347 36.7762 58.512 36.3442 58.512ZM36.3922 56.176C36.7495 56.176 37.0322 56.0613 37.2402 55.832C37.4482 55.6027 37.5522 55.296 37.5522 54.912C37.5522 54.5227 37.4482 54.216 37.2402 53.992C37.0322 53.7627 36.7495 53.648 36.3922 53.648C36.0348 53.648 35.7495 53.7627 35.5362 53.992C35.3282 54.216 35.2242 54.5227 35.2242 54.912C35.2242 55.296 35.3282 55.6027 35.5362 55.832C35.7495 56.0613 36.0348 56.176 36.3922 56.176ZM39.668 52.152V51.232H40.7V52.152H39.668ZM39.756 57V53.032H40.628V57H39.756ZM43.4788 57.072C43.2495 57.072 43.0255 57.0533 42.8068 57.016C42.5935 56.9787 42.3961 56.928 42.2148 56.864C42.0335 56.7947 41.8788 56.7067 41.7508 56.6L41.9988 55.984C42.1375 56.0853 42.2895 56.168 42.4548 56.232C42.6201 56.2907 42.7881 56.3333 42.9588 56.36C43.1295 56.3867 43.2975 56.4 43.4628 56.4C43.7721 56.4 44.0095 56.3573 44.1748 56.272C44.3455 56.1867 44.4308 56.0613 44.4308 55.896C44.4308 55.7573 44.3828 55.6533 44.2868 55.584C44.1908 55.5093 44.0335 55.4533 43.8148 55.416L42.9668 55.28C42.5935 55.216 42.3135 55.088 42.1268 54.896C41.9401 54.704 41.8468 54.464 41.8468 54.176C41.8468 53.9307 41.9135 53.7173 42.0468 53.536C42.1801 53.3547 42.3748 53.2133 42.6308 53.112C42.8868 53.0053 43.1961 52.952 43.5588 52.952C43.7561 52.952 43.9535 52.9707 44.1508 53.008C44.3481 53.0453 44.5295 53.0987 44.6948 53.168C44.8655 53.2373 45.0068 53.3227 45.1188 53.424L44.8548 54.032C44.7428 53.936 44.6148 53.8587 44.4708 53.8C44.3268 53.7413 44.1748 53.6987 44.0148 53.672C43.8601 53.6453 43.7081 53.632 43.5588 53.632C43.2601 53.632 43.0308 53.6773 42.8708 53.768C42.7161 53.8587 42.6388 53.984 42.6388 54.144C42.6388 54.2827 42.6841 54.3893 42.7748 54.464C42.8655 54.5333 43.0095 54.5867 43.2068 54.624L44.0308 54.768C44.4361 54.8373 44.7348 54.9627 44.9268 55.144C45.1188 55.3253 45.2148 55.568 45.2148 55.872C45.2148 56.1173 45.1428 56.3307 44.9988 56.512C44.8601 56.6933 44.6601 56.832 44.3988 56.928C44.1375 57.024 43.8308 57.072 43.4788 57.072ZM48.024 57.072C47.512 57.072 47.128 56.9413 46.872 56.68C46.6214 56.4187 46.496 56.0427 46.496 55.552V53.744H45.704V53.032H46.528V51.88H47.368V53.032H48.768V53.744H47.368V55.496C47.368 55.7787 47.432 55.9893 47.56 56.128C47.6934 56.2613 47.8934 56.328 48.16 56.328C48.2667 56.328 48.3707 56.3173 48.472 56.296C48.5787 56.2747 48.68 56.248 48.776 56.216L48.904 56.888C48.7867 56.952 48.6507 56.9973 48.496 57.024C48.3414 57.056 48.184 57.072 48.024 57.072ZM49.6935 57V53.032H50.4775V53.976H50.4855C50.5815 53.6773 50.7442 53.4427 50.9735 53.272C51.2082 53.096 51.4962 52.9973 51.8375 52.976L52.2375 52.944L52.3175 53.744L51.6775 53.8C51.3255 53.8267 51.0535 53.9413 50.8615 54.144C50.6695 54.3413 50.5735 54.5893 50.5735 54.888V57H49.6935ZM54.4596 57.072C54.1716 57.072 53.9129 57.0187 53.6836 56.912C53.4596 56.8053 53.2809 56.6613 53.1476 56.48C53.0196 56.2933 52.9556 56.0827 52.9556 55.848C52.9556 55.5547 53.0409 55.32 53.2116 55.144C53.3823 54.9627 53.6436 54.832 53.9956 54.752C54.3529 54.672 54.8089 54.632 55.3636 54.632H55.9236V55.192H55.4036C55.1263 55.192 54.8863 55.2027 54.6836 55.224C54.4863 55.24 54.3236 55.272 54.1956 55.32C54.0676 55.3627 53.9716 55.424 53.9076 55.504C53.8489 55.5787 53.8196 55.6773 53.8196 55.8C53.8196 56.0027 53.8943 56.1573 54.0436 56.264C54.1983 56.3707 54.3983 56.424 54.6436 56.424C54.8569 56.424 55.0489 56.376 55.2196 56.28C55.3956 56.1787 55.5343 56.048 55.6356 55.888C55.7423 55.7227 55.7956 55.5413 55.7956 55.344V54.456C55.7956 54.1627 55.7103 53.9547 55.5396 53.832C55.3743 53.704 55.1263 53.64 54.7956 53.64C54.5663 53.64 54.3343 53.672 54.0996 53.736C53.8703 53.8 53.6303 53.904 53.3796 54.048L53.1236 53.424C53.2889 53.3227 53.4676 53.2373 53.6596 53.168C53.8569 53.0987 54.0623 53.0453 54.2756 53.008C54.4889 52.9707 54.6996 52.952 54.9076 52.952C55.2649 52.952 55.5743 53.008 55.8356 53.12C56.0969 53.232 56.2969 53.4053 56.4356 53.64C56.5743 53.8693 56.6436 54.1707 56.6436 54.544V57H55.8916V56.152H55.8836C55.8089 56.3227 55.7049 56.48 55.5716 56.624C55.4436 56.7627 55.2863 56.872 55.0996 56.952C54.9129 57.032 54.6996 57.072 54.4596 57.072ZM59.7428 57.072C59.2308 57.072 58.8468 56.9413 58.5908 56.68C58.3401 56.4187 58.2148 56.0427 58.2148 55.552V53.744H57.4228V53.032H58.2468V51.88H59.0868V53.032H60.4868V53.744H59.0868V55.496C59.0868 55.7787 59.1508 55.9893 59.2788 56.128C59.4121 56.2613 59.6121 56.328 59.8788 56.328C59.9855 56.328 60.0895 56.3173 60.1908 56.296C60.2975 56.2747 60.3988 56.248 60.4948 56.216L60.6228 56.888C60.5055 56.952 60.3695 56.9973 60.2148 57.024C60.0601 57.056 59.9028 57.072 59.7428 57.072ZM61.3243 52.152V51.232H62.3563V52.152H61.3243ZM61.4123 57V53.032H62.2843V57H61.4123ZM65.423 57.072C65.0124 57.072 64.655 56.9867 64.351 56.816C64.047 56.6453 63.8124 56.4053 63.647 56.096C63.4817 55.7867 63.399 55.424 63.399 55.008C63.399 54.592 63.4817 54.232 63.647 53.928C63.8124 53.6187 64.047 53.3787 64.351 53.208C64.655 53.0373 65.0124 52.952 65.423 52.952C65.839 52.952 66.1964 53.0373 66.495 53.208C66.7937 53.3787 67.0257 53.6187 67.191 53.928C67.3564 54.2373 67.439 54.5973 67.439 55.008C67.439 55.424 67.3564 55.7867 67.191 56.096C67.031 56.4053 66.799 56.6453 66.495 56.816C66.1964 56.9867 65.839 57.072 65.423 57.072ZM65.423 56.352C65.7804 56.352 66.0604 56.232 66.263 55.992C66.471 55.752 66.575 55.424 66.575 55.008C66.575 54.592 66.471 54.2667 66.263 54.032C66.0604 53.7973 65.7804 53.68 65.423 53.68C65.0604 53.68 64.775 53.7973 64.567 54.032C64.3644 54.2667 64.263 54.592 64.263 55.008C64.263 55.424 64.367 55.752 64.575 55.992C64.783 56.232 65.0657 56.352 65.423 56.352ZM68.5529 57V53.032H69.3609V53.864H69.3689C69.4969 53.576 69.6862 53.352 69.9369 53.192C70.1929 53.032 70.4809 52.952 70.8009 52.952C71.1262 52.952 71.3982 53.0133 71.6169 53.136C71.8409 53.2533 72.0062 53.4347 72.1129 53.68C72.2249 53.92 72.2809 54.2267 72.2809 54.6V57H71.4009V54.64C71.4009 54.4373 71.3716 54.2667 71.3129 54.128C71.2596 53.984 71.1716 53.8747 71.0489 53.8C70.9262 53.7253 70.7636 53.688 70.5609 53.688C70.3422 53.688 70.1476 53.7387 69.9769 53.84C69.8062 53.936 69.6702 54.0693 69.5689 54.24C69.4729 54.4053 69.4249 54.592 69.4249 54.8V57H68.5529Z" fill="black"/>
<defs>
<filter id="filter0_d_8310_691" x="0" y="0" width="96" height="85.8462" filterUnits="userSpaceOnUse" color-interpolation-filters="sRGB">
<feFlood flood-opacity="0" result="BackgroundImageFix"/>
<feColorMatrix in="SourceAlpha" type="matrix" values="0 0 0 0 0 0 0 0 0 0 0 0 0 0 0 0 0 0 127 0" result="hardAlpha"/>
<feOffset dy="4"/>
<feGaussianBlur stdDeviation="2"/>
<feComposite in2="hardAlpha" operator="out"/>
<feColorMatrix type="matrix" values="0 0 0 0 0 0 0 0 0 0 0 0 0 0 0 0 0 0 0.25 0"/>
<feBlend mode="normal" in2="BackgroundImageFix" result="effect1_dropShadow_8310_691"/>
<feBlend mode="normal" in="SourceGraphic" in2="effect1_dropShadow_8310_691" result="shape"/>
</filter>
</defs>
</svg>
